<?xml version="1.0" encoding="utf-8"?>
<!-- Generator: Adobe Illustrator 16.0.0, SVG Export Plug-In . SVG Version: 6.00 Build 0)  -->
<!DOCTYPE svg PUBLIC "-//W3C//DTD SVG 1.1//EN" "http://www.w3.org/Graphics/SVG/1.1/DTD/svg11.dtd" [
	<!ENTITY ns_flows "http://ns.adobe.com/Flows/1.0/">
	<!ENTITY ns_extend "http://ns.adobe.com/Extensibility/1.0/">
	<!ENTITY ns_ai "http://ns.adobe.com/AdobeIllustrator/10.0/">
	<!ENTITY ns_graphs "http://ns.adobe.com/Graphs/1.0/">
]>
<svg version="1.1" id="Layer_1" xmlns:x="&ns_extend;" xmlns:i="&ns_ai;" xmlns:graph="&ns_graphs;"
	 xmlns="http://www.w3.org/2000/svg" xmlns:xlink="http://www.w3.org/1999/xlink" xmlns:a="http://ns.adobe.com/AdobeSVGViewerExtensions/3.0/"
	 x="0px" y="0px" width="755.09px" height="51.309px" viewBox="0 0 755.09 51.309"
	 style="enable-background:new 0 0 755.09 51.309;" xml:space="preserve">
<path style="fill-rule:evenodd;clip-rule:evenodd;fill:#424C69;" d="M19.447,24.185c1.344-1.32,22.587-22.512,22.587-22.512H29.285
	c0,0-15.795,16.338-18.809,19.443V1.656H9.412H0v49.653h10.476V28.512c2.787,3.217,19.774,22.797,19.774,22.797h13.477
	C43.727,51.309,20.727,25.609,19.447,24.185"/>
<path style="fill-rule:evenodd;clip-rule:evenodd;fill:#424C69;" d="M108.438,1.551c-8.775,0-13.692,6.095-16.036,10.188
	c-1.174-4.875-5.125-10.188-13.44-10.188c-8.33,0-13.004,4.954-15.927,9.847V2.001H52.832v49.495h10.426v-21.1
	c0-8.603,3.965-20.73,12.77-20.73c5.91,0,6.363,4.361,6.363,10.514v31.316h10.452V29.414c0-6.873,3.723-19.748,12.668-19.748
	c5.982,0,6.468,4.614,6.468,9.341v32.489h10.467V15.764C122.445,7,117.065,1.551,108.438,1.551"/>
<path style="fill-rule:evenodd;clip-rule:evenodd;fill:#424C69;" d="M237.931,18.176v-1.093C237.931,6.381,230.416,0,217.827,0
	c-14.986,0-23.577,9.028-23.577,24.769c0,18.187,9.909,27.8,28.675,27.8c5.211,0,8.843-0.704,12.698-1.756l0.801-0.23v-6.656
	l-2.696,0.623c-2.371,0.566-4.074,0.973-7.786,0.973c-18.922,0-19.895-18.803-19.895-22.576c0-5.019,1.095-16.702,11.203-16.702
	c7.872,0,8.522,5.586,8.522,10.839v1.093H237.931z"/>
<path style="fill-rule:evenodd;clip-rule:evenodd;fill:#424C69;" d="M166.878,1.988h-12.536l-23.739,49.538h11.813
	c0,0,5.763-13.061,6.243-14.133h22.32c0.471,1.072,6.24,14.133,6.24,14.133h13.496L166.878,1.988z M151.509,30.918
	c0.987-2.232,7.123-16.173,8.395-19.06c1.261,2.89,7.333,16.832,8.307,19.06H151.509z"/>
<rect x="372.834" y="20.235" style="fill:#30425E;" width="51.527" height="4.114"/>
<rect x="263.104" y="6" style="fill:#30425E;" width="29.357" height="4.101"/>
<rect x="275.386" y="1.741" style="fill:#30425E;" width="5.102" height="4.48"/>
<rect x="487.274" y="5.865" style="fill:#30425E;" width="29.554" height="4.956"/>
<rect x="499.555" y="2.077" style="fill:#30425E;" width="5.586" height="4.83"/>
<rect x="556.58" y="2.251" style="fill:#30425E;" width="5.587" height="4.831"/>
<path style="fill:#30425E;" d="M265.94,31.694h4.946v9.813h30.536V10.284c0,0-0.766-4.776,3.669-4.343h8.958v4.343h-5.547
	c0,0-1.788,0-1.623,4.268v29.673c0,0,0.175,2.733-3.147,2.648h-34.893c0,0-2.817-0.938-2.899-3.493V31.694z"/>
<path style="fill:#30425E;" d="M320.958,6.022v4.518h37.273v9.298h-39.236v4.437h20.219v8.11h-18.767v4.517h37.784v10.833h5.292
	V35.103c0,0-0.256-3.065-2.134-2.645h-17.144v-7.416h22.773v-4.86h-3.24V10.115c0,0,0.429-4.174-4.352-4.093H320.958z"/>
<path style="fill:#30425E;" d="M375.976,3.63h4.78v6.141h40.943v4.612h-42.226c0,0-3.58,0.337-3.58-3.333L375.976,3.63z"/>
<path style="fill:#30425E;" d="M431.934,5.934v3.332h39.838v2.729h-39.328v5.796c0,0,0,2.813,2.563,2.731h41.883V17.11h-39.756
	v-2.727h39.756V9.348c0,0-0.43-3.414-4.609-3.414H431.934z"/>
<path style="fill:#30425E;" d="M478.934,27.088V24.53l-48.877-0.089v2.647h9.979v3.413h-7.936v3.753h39.417v3.072h-39.16v6.139
	c0,0-0.421,2.56,2.82,2.647h41.624v-3.157h-39.325v-3.073h39.068V33.57c0,0,0-3.838-7.08-2.988v-3.494H478.934z M463.672,30.59
	h-18.004v-3.672h18.004V30.59z"/>
<path style="fill:#30425E;" d="M534.547,40.908V9.684c0-3.575-4.606-3.75-4.606-3.75h-7.752v5.036h6.046v4.35h-6.046v4.605h6.56
	v11.09h-35.566v-3.838h-5.121v14.755c-0.427,5.293,4.866,4.266,4.866,4.266h38.048C535.743,46.197,534.547,40.908,534.547,40.908
	 M529.092,40.731h-35.995v-5.03h35.995V40.731z"/>
<path style="fill:#30425E;" d="M556.3,28.111V41.67h-13.474v4.705h41.879c0,0,3.668,0.336,4.093-3.247V4.317h-5.629V41.67h-21.41
	V27.856L556.3,28.111"/>
<path style="fill:#30425E;" d="M599.892,5.254v5.453h21.669c0,0,0.591,4.612-2.135,4.699h-19.707v5.71h16.55
	c0,0,0.255,4.612-17.148,4.868v4.941c0,0,27.892,2.906,29.266-21.322c0,0,0.081-4.013-3.667-4.431L599.892,5.254z"/>
<path style="fill:#30425E;" d="M599.892,32.721v9.897c0,0,0,3.069,3.583,3.243h37.786c0,0,4.612,0.163,4.688-3.42V9.597
	c0,0,0.771-4.174-2.984-4.599h-10.146v5.205h7.674v30.193h-34.033v-7.675H599.892z"/>
<path style="fill:#30425E;" d="M652.264,14.808v4.687c0,0,12.28,1.628,19.792-6.99c0,0,4.096,7.075,18.933,7.075v-4.348
	c0,0-14.157-1.367-16.125-10.06h-5.877C668.986,5.172,670.265,12.76,652.264,14.808"/>
<path style="fill:#30425E;" d="M656.274,23.336v5.119h39.496v3.239h-39.578v10.747c0,0,0.163,4.096,4.694,3.756h41.192v-5.54
	h-39.408v-4.354h39.574V25.729c0,0,0-1.708-3.919-3.246h3.583V9.259c0,0-0.248-3.069-3.405-3.151h-9.811v5.111h7.339v11.943
	L656.274,23.336z"/>
<path style="fill:#30425E;" d="M730.827,25.467h-1.961h-18.345c-3.409-0.251-3.231-3.072-3.231-3.072V6.277h31.301v4.693h-24.823
	v2.215h24.823v4.438h-24.483v2.472h23.885l-3.494,4.261l-3.246,0.86L730.827,25.467z"/>
<path style="fill:#30425E;" d="M748.057,24.537v-1.204l-0.344-0.258L748.057,24.537z M748.057,6.277v17.056l2.039,1.54v2.725
	l4.365,4.358V6.277H748.057z"/>
<path style="fill:#30425E;" d="M277.931,6.089c-7.089,0-12.826,5.193-12.826,11.601c0,6.404,5.737,11.6,12.826,11.6
	c7.087,0,12.824-5.196,12.824-11.6C290.755,11.282,285.018,6.089,277.931,6.089 M277.931,25.403c-4.411,0-7.981-3.451-7.981-7.713
	c0-4.262,3.57-7.712,7.981-7.712c4.409,0,7.983,3.45,7.983,7.712C285.914,21.952,282.34,25.403,277.931,25.403"/>
<path style="fill:#30425E;" d="M398.895,20.243c-9.037,0-16.367,6.626-16.367,14.81c0,8.175,7.33,14.802,16.367,14.802
	c9.031,0,16.363-6.627,16.363-14.802C415.258,26.869,407.926,20.243,398.895,20.243 M398.895,45.326
	c-5.877,0-10.627-4.604-10.627-10.273c0-5.681,4.75-10.278,10.627-10.278c5.871,0,10.623,4.598,10.623,10.278
	C409.518,40.722,404.766,45.326,398.895,45.326"/>
<path style="fill:#30425E;" d="M502.133,6.558c-6.799,0-12.307,4.673-12.307,10.448c0,5.771,5.508,10.443,12.307,10.443
	c6.8,0,12.307-4.672,12.307-10.443C514.439,11.231,508.933,6.558,502.133,6.558 M509.316,17.821
	c-0.383,3.347-3.908,5.683-7.875,5.228c-3.97-0.455-6.871-3.527-6.486-6.874c0.382-3.335,3.902-5.67,7.871-5.216
	C506.794,11.414,509.699,14.485,509.316,17.821"/>
<path style="fill:#30425E;" d="M574.146,5.865h-13.218c3.785,0.44,7.057,2.298,9.08,4.956h4.138V5.865z"/>
<path style="fill:#30425E;" d="M557.482,5.865h-12.89v4.956h3.807C550.422,8.163,553.692,6.305,557.482,5.865"/>
<path style="fill:#30425E;" d="M567.157,17.198c0,3.82-3.696,6.928-8.252,6.928c-4.553,0-8.248-3.108-8.248-6.928
	c0-2.86,2.067-5.318,5.013-6.377h-7.271c-1.37,1.8-2.171,3.962-2.171,6.289c0,6.273,5.802,11.359,12.978,11.359
	c7.165,0,12.975-5.086,12.975-11.359c0-2.327-0.802-4.489-2.173-6.289h-7.865C565.09,11.88,567.157,14.338,567.157,17.198"/>
<path style="fill:#30425E;" d="M559.206,5.753c-0.586,0-1.158,0.046-1.724,0.111h3.445C560.363,5.799,559.791,5.753,559.206,5.753"
	/>
<path style="fill:#30425E;" d="M560.928,5.865h-3.445c-3.79,0.44-7.061,2.298-9.083,4.956h7.271
	c0.994-0.357,2.087-0.556,3.235-0.556c1.149,0,2.243,0.199,3.237,0.556h7.865C567.984,8.163,564.713,6.305,560.928,5.865"/>
<path style="fill:#30425E;" d="M560.928,5.865h-3.445c-3.79,0.44-7.061,2.298-9.083,4.956h7.271
	c0.994-0.357,2.087-0.556,3.235-0.556c1.149,0,2.243,0.199,3.237,0.556h7.865C567.984,8.163,564.713,6.305,560.928,5.865"/>
<path style="fill:#30425E;" d="M738.983,20.419c-8.894,0-16.106,6.8-16.106,15.197c0,8.397,7.213,15.212,16.106,15.212
	c8.893,0,16.106-6.814,16.106-15.212C755.09,27.22,747.876,20.419,738.983,20.419 M739.101,45.1
	c-5.901,0-10.681-4.506-10.681-10.082c0-5.571,4.779-10.081,10.681-10.081c5.904,0,10.684,4.51,10.684,10.081
	C749.784,40.594,745.005,45.1,739.101,45.1"/>
</svg>
